<svg width="180" height="69" viewBox="0 0 180 69" fill="none" xmlns="http://www.w3.org/2000/svg">
<path fill-rule="evenodd" clip-rule="evenodd" d="M151.276 1.69152C151.126 1.30965 150.765 1.04503 150.354 1.04503H143.182C142.865 1.04503 142.706 1.1717 142.706 1.42504L142.695 9.25515C142.694 9.76985 141.906 9.94587 141.648 9.5002C139.999 6.58681 137.779 4.27509 134.988 2.56506C132.198 0.855019 129.058 0 125.57 0C122.081 0 118.91 0.886686 116.056 2.66006C113.265 4.3701 111.045 6.68181 109.396 9.59521C107.811 12.4453 107.018 15.612 107.018 19.0954L107.003 23.8691C106.999 25.0297 105.312 25.1717 105.114 24.0282L101.193 1.42504C101.13 1.1717 100.971 1.04503 100.717 1.04503H86.9225C86.6688 1.04503 86.5103 1.1717 86.4469 1.42504L80.2419 35.7538C80.0361 36.8921 78.3576 36.7445 78.3543 35.5878L78.2547 1.42504C78.2547 1.1717 78.1278 1.04503 77.8741 1.04503H66.1723C65.9399 1.04503 65.7342 1.15126 65.5551 1.36372C65.5215 1.40356 65.4874 1.44312 65.4497 1.47912L57.5063 9.06257C57.1385 9.41368 56.5592 9.41368 56.1914 9.06257L48.248 1.47911C48.2103 1.44312 48.1762 1.40356 48.1426 1.36372C47.9635 1.15126 47.7577 1.04503 47.5254 1.04503H35.9187C35.665 1.04503 35.5381 1.1717 35.5381 1.42504L35.5155 9.18118C35.5142 9.62668 34.8632 9.78492 34.6299 9.40521C32.9808 6.55515 30.7293 4.30677 27.8751 2.66006C25.0845 0.950027 22.0084 0.0950079 18.6469 0.0950079C15.3488 0.0950079 12.2727 0.91836 9.41857 2.56506C6.62788 4.21176 4.3763 6.46015 2.66384 9.31021C0.95137 12.0969 0.095137 15.2637 0.095137 18.8104C0.095137 22.6738 0.919658 26.1572 2.5687 29.2606C4.28117 32.3007 6.88158 34.8341 10.3699 36.8608C12.2727 37.9375 14.3023 39.0775 16.4587 40.2809C18.6151 41.4842 20.2008 42.3709 21.2156 42.9409C24.2599 44.651 25.7821 46.6777 25.7821 49.0211C25.7821 51.0478 25.0845 52.8212 23.6891 54.3412C22.2938 55.8612 20.613 56.6212 18.6469 56.6212C16.6807 56.6212 14.9999 55.8929 13.6046 54.4362C12.2093 52.9162 11.5116 51.1111 11.5116 49.0211V44.651C11.5116 44.3343 11.3847 44.176 11.131 44.176H0.475685C0.158562 44.176 0 44.3343 0 44.651V49.0211C0 52.5045 0.824521 55.7029 2.47356 58.6163C4.18603 61.4664 6.43761 63.7781 9.22829 65.5514C12.0824 67.2615 15.2219 68.1165 18.6469 68.1165C22.0718 68.1165 25.1796 67.2931 27.9703 65.6464C30.8244 63.9364 33.076 61.6563 34.725 58.8063C34.8948 58.5174 35.3714 58.635 35.3704 58.9701L35.3479 66.6915C35.3479 67.0081 35.4747 67.1665 35.7284 67.1665H46.4789C46.7326 67.1665 46.8595 67.0081 46.8595 66.6915L46.9503 20.4197C46.9519 19.5901 47.943 19.161 48.5506 19.7269L56.203 26.8541C56.5672 27.1933 57.1317 27.1947 57.4975 26.8572L65.2455 19.7097C65.8542 19.1482 66.8409 19.5781 66.8425 20.4056L66.9334 66.6915C66.9334 67.0081 67.0602 67.1665 67.3139 67.1665H85.5906C85.8443 67.1665 86.0029 67.0081 86.0663 66.6915L86.9908 60.5648C87.061 60.1 87.4609 59.7563 87.9316 59.7563H99.2327C99.7034 59.7563 100.103 60.1 100.173 60.5648L101.098 66.6915C101.161 67.0081 101.32 67.1665 101.574 67.1665H112.134C112.451 67.1665 112.578 67.0081 112.514 66.6915L112.248 65.1564C112.083 64.2052 113.38 63.5525 114.129 64.1629C114.738 64.6591 115.38 65.122 116.056 65.5514C118.91 67.2615 122.081 68.1165 125.57 68.1165C129.058 68.1165 132.198 67.2615 134.988 65.5514C137.779 63.7781 139.999 61.4347 141.648 58.5213C141.895 58.1017 142.623 58.2712 142.623 58.7577L142.611 66.6915C142.611 67.0081 142.738 67.1665 142.992 67.1665H153.742C153.996 67.1665 154.123 67.0081 154.123 66.6915V60.7538C154.123 60.2292 154.549 59.8038 155.074 59.8038H167.442C167.967 59.8038 168.393 60.2292 168.393 60.7538V66.6915C168.393 67.0081 168.552 67.1665 168.869 67.1665H179.524C179.841 67.1665 180 67.0081 180 66.6915L179.902 32.9701C179.901 32.6661 179.753 32.3828 179.513 32.1955C176.821 30.0906 175.007 26.9162 174.714 23.3125C174.674 22.8289 174.305 22.43 173.826 22.3523C172.46 22.1309 171.167 21.6903 169.986 21.0679C169.296 20.7043 168.393 21.1705 168.393 21.9496V42.941C168.393 43.4656 167.967 43.891 167.442 43.891H155.076C154.55 43.891 154.124 43.4643 154.125 42.9388L154.206 6.50682C154.207 6.25033 154.102 6.00574 153.925 5.82075C152.79 4.6411 151.883 3.24114 151.276 1.69152ZM133.086 43.986H141.694C142.219 43.986 142.645 43.5615 142.646 43.0373L142.667 28.122C142.668 27.5968 142.242 27.1706 141.716 27.1706H133.086C132.832 27.1706 132.705 27.0439 132.705 26.7906V19.0954C132.705 17.0054 132.007 15.2003 130.612 13.6803C129.28 12.1603 127.599 11.4002 125.57 11.4002C123.286 11.4002 121.542 12.1919 120.337 13.7753C119.132 15.2953 118.53 17.0687 118.53 19.0954V48.7361C118.53 51.0794 119.196 52.9795 120.527 54.4362C121.923 55.8929 123.604 56.6212 125.57 56.6212C127.599 56.6212 129.28 55.8296 130.612 54.2462C132.007 52.5995 132.705 50.7628 132.705 48.7361V44.366C132.705 44.1126 132.832 43.986 133.086 43.986ZM35.4609 27.9334C35.4624 27.4076 35.036 26.9806 34.5095 26.9806H26.1627C25.909 26.9806 25.7821 26.8539 25.7821 26.6006L25.687 18.8104C25.687 16.5937 24.9893 14.7887 23.594 13.3953C22.1986 12.0019 20.5496 11.3053 18.6469 11.3053C16.6807 11.3053 14.9999 12.0653 13.6046 13.5853C12.2093 15.042 11.5116 16.7837 11.5116 18.8104C11.5116 20.9005 11.9556 22.6422 12.8435 24.0355C13.7314 25.4289 15.3488 26.7589 17.6955 28.0256C18.0126 28.2156 18.6151 28.564 19.5031 29.0706C20.4545 29.514 21.4693 30.0523 22.5475 30.6857C23.6257 31.2557 24.5771 31.7624 25.4016 32.2057C26.2895 32.649 26.8286 32.9341 27.0189 33.0607C30.1902 34.8341 32.6954 37.0191 34.5347 39.6159C34.7948 39.974 35.4263 39.7997 35.4276 39.3573L35.4609 27.9334ZM89.2351 42.7601C89.1213 43.3464 89.571 43.891 90.1691 43.891H97.0046C97.5996 43.891 98.0485 43.3518 97.94 42.7677L94.2481 22.8955C94.1419 22.2418 93.2004 22.2422 93.0916 22.8955L89.2351 42.7601Z" fill="#FF8B20"/>
</svg>
