<svg width="180" height="88" viewBox="0 0 180 88" fill="none" xmlns="http://www.w3.org/2000/svg">
<path fill-rule="evenodd" clip-rule="evenodd" d="M151.276 1.69152C151.126 1.30965 150.765 1.04503 150.354 1.04503H143.182C142.865 1.04503 142.706 1.1717 142.706 1.42504L142.695 9.25515C142.694 9.76985 141.906 9.94587 141.648 9.5002C139.999 6.58681 137.779 4.27509 134.988 2.56506C132.198 0.855019 129.058 0 125.57 0C122.081 0 118.91 0.886686 116.056 2.66006C113.265 4.3701 111.045 6.68181 109.396 9.59521C107.811 12.4453 107.018 15.612 107.018 19.0954L107.003 23.8691C106.999 25.0297 105.312 25.1717 105.114 24.0282L101.193 1.42504C101.13 1.1717 100.971 1.04503 100.717 1.04503H86.9225C86.6688 1.04503 86.5103 1.1717 86.4469 1.42504L80.2419 35.7538C80.0361 36.8921 78.3576 36.7445 78.3543 35.5878L78.2547 1.42504C78.2547 1.1717 78.1278 1.04503 77.8741 1.04503H66.1723C65.9399 1.04503 65.7342 1.15126 65.5551 1.36372C65.5215 1.40356 65.4874 1.44312 65.4497 1.47912L57.5063 9.06257C57.1385 9.41368 56.5592 9.41368 56.1914 9.06257L48.248 1.47911C48.2103 1.44312 48.1762 1.40356 48.1426 1.36372C47.9635 1.15126 47.7577 1.04503 47.5254 1.04503H35.9187C35.665 1.04503 35.5381 1.1717 35.5381 1.42504L35.5155 9.18118C35.5142 9.62668 34.8632 9.78492 34.6299 9.40521C32.9808 6.55515 30.7293 4.30677 27.8751 2.66006C25.0845 0.950027 22.0084 0.0950079 18.6469 0.0950079C15.3488 0.0950079 12.2727 0.91836 9.41857 2.56506C6.62788 4.21176 4.3763 6.46015 2.66384 9.31021C0.95137 12.0969 0.095137 15.2637 0.095137 18.8104C0.095137 22.6738 0.919658 26.1572 2.5687 29.2606C4.28117 32.3007 6.88158 34.8341 10.3699 36.8608C12.2727 37.9375 14.3023 39.0775 16.4587 40.2809C18.6151 41.4842 20.2008 42.3709 21.2156 42.9409C24.2599 44.651 25.7821 46.6777 25.7821 49.0211C25.7821 51.0478 25.0845 52.8212 23.6891 54.3412C22.2938 55.8612 20.613 56.6212 18.6469 56.6212C16.6807 56.6212 14.9999 55.8929 13.6046 54.4362C12.2093 52.9162 11.5116 51.1111 11.5116 49.0211V44.651C11.5116 44.3343 11.3847 44.176 11.131 44.176H0.475685C0.158562 44.176 0 44.3343 0 44.651V49.0211C0 52.5045 0.824521 55.7029 2.47356 58.6163C4.18603 61.4664 6.43761 63.7781 9.22829 65.5514C12.0824 67.2615 15.2219 68.1165 18.6469 68.1165C22.0718 68.1165 25.1796 67.2931 27.9703 65.6464C30.8244 63.9364 33.076 61.6563 34.725 58.8063C34.8948 58.5174 35.3714 58.635 35.3704 58.9701L35.3479 66.6915C35.3479 67.0081 35.4747 67.1665 35.7284 67.1665H46.4789C46.7326 67.1665 46.8595 67.0081 46.8595 66.6915L46.9503 20.4197C46.9519 19.5901 47.943 19.161 48.5506 19.7269L56.203 26.8541C56.5672 27.1933 57.1317 27.1947 57.4975 26.8572L65.2455 19.7097C65.8542 19.1482 66.8409 19.5781 66.8425 20.4056L66.9334 66.6915C66.9334 67.0081 67.0602 67.1665 67.3139 67.1665H85.5906C85.8443 67.1665 86.0029 67.0081 86.0663 66.6915L86.9908 60.5648C87.061 60.1 87.4609 59.7563 87.9316 59.7563H99.2327C99.7034 59.7563 100.103 60.1 100.173 60.5648L101.098 66.6915C101.161 67.0081 101.32 67.1665 101.574 67.1665H112.134C112.451 67.1665 112.578 67.0081 112.514 66.6915L112.248 65.1564C112.083 64.2052 113.38 63.5525 114.129 64.1629C114.738 64.6591 115.38 65.122 116.056 65.5514C118.91 67.2615 122.081 68.1165 125.57 68.1165C129.058 68.1165 132.198 67.2615 134.988 65.5514C137.779 63.7781 139.999 61.4347 141.648 58.5213C141.895 58.1017 142.623 58.2712 142.623 58.7577L142.611 66.6915C142.611 67.0081 142.738 67.1665 142.992 67.1665H153.742C153.996 67.1665 154.123 67.0081 154.123 66.6915V60.7538C154.123 60.2292 154.549 59.8038 155.074 59.8038H167.442C167.967 59.8038 168.393 60.2292 168.393 60.7538V66.6915C168.393 67.0081 168.552 67.1665 168.869 67.1665H179.524C179.841 67.1665 180 67.0081 180 66.6915L179.902 32.9701C179.901 32.6661 179.753 32.3828 179.513 32.1955C176.821 30.0906 175.007 26.9162 174.714 23.3125C174.674 22.8289 174.305 22.43 173.826 22.3523C172.46 22.1309 171.167 21.6903 169.986 21.0679C169.296 20.7043 168.393 21.1705 168.393 21.9496V42.941C168.393 43.4656 167.967 43.891 167.442 43.891H155.076C154.55 43.891 154.124 43.4643 154.125 42.9388L154.206 6.50682C154.207 6.25033 154.102 6.00574 153.925 5.82075C152.79 4.6411 151.883 3.24114 151.276 1.69152ZM133.086 43.986H141.694C142.219 43.986 142.645 43.5615 142.646 43.0373L142.667 28.122C142.668 27.5968 142.242 27.1706 141.716 27.1706H133.086C132.832 27.1706 132.705 27.0439 132.705 26.7906V19.0954C132.705 17.0054 132.007 15.2003 130.612 13.6803C129.28 12.1603 127.599 11.4002 125.57 11.4002C123.286 11.4002 121.542 12.1919 120.337 13.7753C119.132 15.2953 118.53 17.0687 118.53 19.0954V48.7361C118.53 51.0794 119.196 52.9795 120.527 54.4362C121.923 55.8929 123.604 56.6212 125.57 56.6212C127.599 56.6212 129.28 55.8296 130.612 54.2462C132.007 52.5995 132.705 50.7628 132.705 48.7361V44.366C132.705 44.1126 132.832 43.986 133.086 43.986ZM35.4609 27.9334C35.4624 27.4076 35.036 26.9806 34.5095 26.9806H26.1627C25.909 26.9806 25.7821 26.8539 25.7821 26.6006L25.687 18.8104C25.687 16.5937 24.9893 14.7887 23.594 13.3953C22.1986 12.0019 20.5496 11.3053 18.6469 11.3053C16.6807 11.3053 14.9999 12.0653 13.6046 13.5853C12.2093 15.042 11.5116 16.7837 11.5116 18.8104C11.5116 20.9005 11.9556 22.6422 12.8435 24.0355C13.7314 25.4289 15.3488 26.7589 17.6955 28.0256C18.0126 28.2156 18.6151 28.564 19.5031 29.0706C20.4545 29.514 21.4693 30.0523 22.5475 30.6857C23.6257 31.2557 24.5771 31.7624 25.4016 32.2057C26.2895 32.649 26.8286 32.9341 27.0189 33.0607C30.1902 34.8341 32.6954 37.0191 34.5347 39.6159C34.7948 39.974 35.4263 39.7997 35.4276 39.3573L35.4609 27.9334ZM89.2351 42.7601C89.1213 43.3464 89.571 43.891 90.1691 43.891H97.0046C97.5996 43.891 98.0485 43.3518 97.94 42.7677L94.2481 22.8955C94.1419 22.2418 93.2004 22.2422 93.0916 22.8955L89.2351 42.7601Z" fill="#FF8B20"/>
<path d="M36.359 87.848C36.2956 87.848 36.2385 87.829 36.1878 87.791C36.1497 87.7403 36.1307 87.6833 36.1307 87.62V74.7757C36.1307 74.7124 36.1497 74.6617 36.1878 74.6237C36.2385 74.573 36.2956 74.5477 36.359 74.5477H39.0609C39.1243 74.5477 39.1751 74.573 39.2131 74.6237C39.2639 74.6617 39.2892 74.7124 39.2892 74.7757V85.0549C39.2892 85.1183 39.3209 85.1499 39.3844 85.1499H45.4541C45.5175 85.1499 45.5683 85.1753 45.6063 85.2259C45.6571 85.2639 45.6824 85.3146 45.6824 85.3779V87.62C45.6824 87.6833 45.6571 87.7403 45.6063 87.791C45.5683 87.829 45.5175 87.848 45.4541 87.848H36.359Z" fill="#666666"/>
<path d="M66.3472 87.848C66.2077 87.848 66.1189 87.7846 66.0809 87.658L65.5861 85.9669C65.5608 85.9163 65.5291 85.8909 65.491 85.8909H61.1528C61.1147 85.8909 61.083 85.9163 61.0576 85.9669L60.5629 87.658C60.5248 87.7846 60.4361 87.848 60.2965 87.848H57.3853C57.3092 87.848 57.2521 87.829 57.2141 87.791C57.176 87.7403 57.1697 87.6706 57.1951 87.582L61.2669 74.7377C61.305 74.611 61.3874 74.5477 61.5143 74.5477H65.1105C65.2373 74.5477 65.3198 74.611 65.3578 74.7377L69.4487 87.582C69.4614 87.6073 69.4677 87.639 69.4677 87.677C69.4677 87.791 69.398 87.848 69.2584 87.848H66.3472ZM61.8187 83.3449C61.806 83.4209 61.8314 83.4589 61.8948 83.4589H64.7299C64.806 83.4589 64.8314 83.4209 64.806 83.3449L63.3599 78.4618C63.3472 78.4111 63.3282 78.3921 63.3028 78.4048C63.2775 78.4048 63.2585 78.4238 63.2458 78.4618L61.8187 83.3449Z" fill="#666666"/>
<path d="M88.8821 74.7757C88.8821 74.7124 88.9011 74.6617 88.9392 74.6237C88.9899 74.573 89.047 74.5477 89.1104 74.5477H91.8123C91.8757 74.5477 91.9265 74.573 91.9645 74.6237C92.0153 74.6617 92.0406 74.7124 92.0406 74.7757V87.62C92.0406 87.6833 92.0153 87.7403 91.9645 87.791C91.9265 87.829 91.8757 87.848 91.8123 87.848H89.2246C89.0977 87.848 89.0089 87.7973 88.9582 87.696L84.5819 80.4378C84.5565 80.3998 84.5311 80.3872 84.5058 80.3998C84.4804 80.3998 84.4677 80.4252 84.4677 80.4758L84.4867 87.62C84.4867 87.6833 84.4614 87.7403 84.4106 87.791C84.3726 87.829 84.3218 87.848 84.2584 87.848H81.5565C81.4931 87.848 81.436 87.829 81.3853 87.791C81.3472 87.7403 81.3282 87.6833 81.3282 87.62V74.7757C81.3282 74.7124 81.3472 74.6617 81.3853 74.6237C81.436 74.573 81.4931 74.5477 81.5565 74.5477H84.1633C84.2901 74.5477 84.3789 74.5984 84.4297 74.6997L88.7869 81.9389C88.8123 81.9769 88.8377 81.9959 88.863 81.9959C88.8884 81.9832 88.9011 81.9515 88.9011 81.9009L88.8821 74.7757Z" fill="#666666"/>
<path d="M109.282 88C108.267 88 107.372 87.8036 106.599 87.411C105.838 87.0183 105.241 86.461 104.81 85.7389C104.391 85.0169 104.182 84.1809 104.182 83.2309V79.1268C104.182 78.1894 104.391 77.3661 104.81 76.6567C105.241 75.9347 105.838 75.3774 106.599 74.9847C107.372 74.592 108.267 74.3957 109.282 74.3957C110.296 74.3957 111.184 74.5857 111.945 74.9657C112.719 75.333 113.315 75.8587 113.734 76.5427C114.165 77.2141 114.381 77.9931 114.381 78.8798C114.381 78.9431 114.355 78.9938 114.305 79.0318C114.267 79.0698 114.216 79.0888 114.153 79.0888L111.451 79.2598C111.298 79.2598 111.222 79.1901 111.222 79.0508C111.222 78.4554 111.045 77.9804 110.69 77.6258C110.334 77.2711 109.865 77.0937 109.282 77.0937C108.698 77.0937 108.229 77.2774 107.873 77.6448C107.518 77.9994 107.341 78.4681 107.341 79.0508V83.3639C107.341 83.9466 107.518 84.4152 107.873 84.7699C108.229 85.1246 108.698 85.3019 109.282 85.3019C109.865 85.3019 110.334 85.1246 110.69 84.7699C111.045 84.4152 111.222 83.9466 111.222 83.3639C111.222 83.2245 111.298 83.1549 111.451 83.1549L114.153 83.2879C114.216 83.2879 114.267 83.3069 114.305 83.3449C114.355 83.3829 114.381 83.4272 114.381 83.4779C114.381 84.3772 114.165 85.1689 113.734 85.8529C113.315 86.537 112.719 87.069 111.945 87.449C111.184 87.8163 110.296 88 109.282 88Z" fill="#666666"/>
<path d="M133.358 74.7757C133.358 74.7124 133.377 74.6617 133.415 74.6237C133.466 74.573 133.523 74.5477 133.587 74.5477H136.289C136.352 74.5477 136.403 74.573 136.441 74.6237C136.492 74.6617 136.517 74.7124 136.517 74.7757V87.62C136.517 87.6833 136.492 87.7403 136.441 87.791C136.403 87.829 136.352 87.848 136.289 87.848H133.587C133.523 87.848 133.466 87.829 133.415 87.791C133.377 87.7403 133.358 87.6833 133.358 87.62V82.5659C133.358 82.5025 133.327 82.4709 133.263 82.4709H129.705C129.642 82.4709 129.61 82.5025 129.61 82.5659V87.62C129.61 87.6833 129.585 87.7403 129.534 87.791C129.496 87.829 129.445 87.848 129.382 87.848H126.68C126.616 87.848 126.559 87.829 126.508 87.791C126.47 87.7403 126.451 87.6833 126.451 87.62V74.7757C126.451 74.7124 126.47 74.6617 126.508 74.6237C126.559 74.573 126.616 74.5477 126.68 74.5477H129.382C129.445 74.5477 129.496 74.573 129.534 74.6237C129.585 74.6617 129.61 74.7124 129.61 74.7757V79.6778C129.61 79.7411 129.642 79.7728 129.705 79.7728H133.263C133.327 79.7728 133.358 79.7411 133.358 79.6778V74.7757Z" fill="#666666"/>
<path d="M158.154 77.0177C158.154 77.0811 158.128 77.1381 158.078 77.1888C158.04 77.2268 157.989 77.2458 157.925 77.2458H151.951C151.887 77.2458 151.856 77.2774 151.856 77.3408V79.6778C151.856 79.7411 151.887 79.7728 151.951 79.7728H155.775C155.839 79.7728 155.889 79.7981 155.928 79.8488C155.978 79.8868 156.004 79.9375 156.004 80.0008V82.2239C156.004 82.2872 155.978 82.3442 155.928 82.3949C155.889 82.4329 155.839 82.4519 155.775 82.4519H151.951C151.887 82.4519 151.856 82.4835 151.856 82.5469V85.0549C151.856 85.1183 151.887 85.1499 151.951 85.1499H157.925C157.989 85.1499 158.04 85.1753 158.078 85.2259C158.128 85.2639 158.154 85.3146 158.154 85.3779V87.62C158.154 87.6833 158.128 87.7403 158.078 87.791C158.04 87.829 157.989 87.848 157.925 87.848H148.925C148.862 87.848 148.805 87.829 148.754 87.791C148.716 87.7403 148.697 87.6833 148.697 87.62V74.7757C148.697 74.7124 148.716 74.6617 148.754 74.6237C148.805 74.573 148.862 74.5477 148.925 74.5477H157.925C157.989 74.5477 158.04 74.573 158.078 74.6237C158.128 74.6617 158.154 74.7124 158.154 74.7757V77.0177Z" fill="#666666"/>
<path d="M174.977 88C173.924 88 173.004 87.8353 172.218 87.506C171.444 87.164 170.841 86.6826 170.41 86.0619C169.992 85.4286 169.782 84.7002 169.782 83.8769V83.5159C169.782 83.4526 169.801 83.4019 169.839 83.3639C169.89 83.3132 169.947 83.2879 170.011 83.2879H172.655C172.719 83.2879 172.77 83.3132 172.808 83.3639C172.858 83.4019 172.884 83.4526 172.884 83.5159V83.7439C172.884 84.1619 173.093 84.5292 173.512 84.8459C173.93 85.1499 174.495 85.3019 175.205 85.3019C175.763 85.3019 176.175 85.1816 176.442 84.9409C176.708 84.7002 176.841 84.4216 176.841 84.1049C176.841 83.8516 176.759 83.6489 176.594 83.4969C176.442 83.3322 176.233 83.1992 175.966 83.0979C175.7 82.9839 175.288 82.8319 174.729 82.6419C174.653 82.6039 174.577 82.5785 174.501 82.5659C174.425 82.5405 174.355 82.5152 174.292 82.4899C173.467 82.2239 172.751 81.9389 172.142 81.6348C171.533 81.3182 171.013 80.8875 170.581 80.3428C170.15 79.7855 169.934 79.1015 169.934 78.2908C169.934 77.5054 170.137 76.8214 170.543 76.2387C170.962 75.6434 171.539 75.1874 172.275 74.8707C173.011 74.554 173.841 74.3957 174.767 74.3957C175.744 74.3957 176.619 74.573 177.393 74.9277C178.18 75.2824 178.795 75.7827 179.239 76.4287C179.683 77.0747 179.905 77.8158 179.905 78.6518V78.9178C179.905 78.9811 179.88 79.0381 179.829 79.0888C179.791 79.1268 179.74 79.1458 179.677 79.1458H177.032C176.968 79.1458 176.911 79.1268 176.86 79.0888C176.822 79.0381 176.803 78.9811 176.803 78.9178V78.7848C176.803 78.3414 176.607 77.9488 176.214 77.6068C175.82 77.2648 175.294 77.0937 174.634 77.0937C174.14 77.0937 173.753 77.1951 173.474 77.3978C173.195 77.6004 173.055 77.8854 173.055 78.2528C173.055 78.5314 173.144 78.7658 173.321 78.9558C173.499 79.1331 173.772 79.3041 174.14 79.4688C174.52 79.6208 175.097 79.8235 175.871 80.0768C176.759 80.3808 177.45 80.6468 177.945 80.8748C178.44 81.1028 178.903 81.4765 179.334 81.9959C179.778 82.5025 180 83.1739 180 84.0099C180 84.8333 179.791 85.5426 179.372 86.1379C178.954 86.7333 178.364 87.1956 177.603 87.525C176.854 87.8417 175.979 88 174.977 88Z" fill="#666666"/>
</svg>
